<svg width="27" height="26" viewBox="0 0 27 26" fill="none" xmlns="http://www.w3.org/2000/svg">
<path d="M12.0475 4.22568C12.144 3.64438 12.6481 3.21753 13.2379 3.21753H14.41C14.9998 3.21753 15.5038 3.64438 15.6004 4.22568L15.7601 5.18449C15.8352 5.63923 16.1719 6.00388 16.5966 6.18192C17.0234 6.35781 17.5135 6.33421 17.8888 6.06609L18.6792 5.50088C18.9117 5.3347 19.1955 5.25643 19.4803 5.28C19.765 5.30357 20.0322 5.42745 20.2342 5.62958L21.0631 6.4597C21.4814 6.8769 21.535 7.53434 21.1918 8.01482L20.6267 8.80525C20.3586 9.18063 20.335 9.66969 20.5119 10.0965C20.6889 10.5223 21.0535 10.858 21.5092 10.9331L22.4669 11.094C23.0492 11.1905 23.4749 11.6935 23.4749 12.2834V13.4567C23.4749 14.0466 23.0492 14.5506 22.4669 14.6472L21.5082 14.807C21.0535 14.882 20.6889 15.2177 20.5119 15.6435C20.335 16.0704 20.3586 16.5594 20.6267 16.9348L21.1918 17.7263C21.535 18.2057 21.4803 18.8632 21.0631 19.2814L20.2331 20.1105C20.0312 20.3123 19.7642 20.436 19.4797 20.4596C19.1952 20.4832 18.9116 20.4051 18.6792 20.2392L17.8878 19.674C17.5124 19.4058 17.0234 19.3822 16.5977 19.5592C16.1709 19.7362 15.8363 20.1008 15.7601 20.5556L15.6004 21.5144C15.5038 22.0957 14.9998 22.5225 14.41 22.5225H13.2368C12.647 22.5225 12.144 22.0957 12.0465 21.5144L11.8877 20.5556C11.8116 20.1008 11.4759 19.7362 11.0502 19.5581C10.6234 19.3822 10.1344 19.4058 9.75904 19.674L8.96761 20.2392C8.48826 20.5824 7.83088 20.5277 7.41265 20.1105L6.58369 19.2804C6.38157 19.0784 6.2577 18.8112 6.23414 18.5264C6.21057 18.2416 6.28884 17.9577 6.455 17.7252L7.02015 16.9348C7.28825 16.5594 7.31184 16.0704 7.13597 15.6435C6.95902 15.2177 6.59334 14.882 6.13864 14.807L5.17992 14.6461C4.59869 14.5496 4.17188 14.0455 4.17188 13.4567V12.2834C4.17188 11.6935 4.59869 11.1894 5.17992 11.0929L6.13864 10.9331C6.59334 10.858 6.95902 10.5223 7.13597 10.0965C7.31291 9.66969 7.28932 9.18063 7.02015 8.80525L6.45607 8.01375C6.28991 7.78128 6.21164 7.49737 6.23521 7.21258C6.25877 6.92779 6.38264 6.66062 6.58476 6.45862L7.41372 5.62958C7.61569 5.42745 7.88284 5.30357 8.1676 5.28C8.45236 5.25643 8.73624 5.3347 8.96869 5.50088L9.75904 6.06609C10.1344 6.33421 10.6245 6.35781 11.0502 6.18085C11.4759 6.00388 11.8116 5.63923 11.8867 5.18449L12.0475 4.22568Z" stroke="white" stroke-width="1.5" stroke-linecap="round" stroke-linejoin="round"/>
<path d="M17.0418 12.8701C17.0418 13.7234 16.7028 14.5418 16.0995 15.1452C15.4962 15.7486 14.6778 16.0876 13.8246 16.0876C12.9714 16.0876 12.153 15.7486 11.5497 15.1452C10.9464 14.5418 10.6074 13.7234 10.6074 12.8701C10.6074 12.0168 10.9464 11.1984 11.5497 10.595C12.153 9.99157 12.9714 9.65259 13.8246 9.65259C14.6778 9.65259 15.4962 9.99157 16.0995 10.595C16.7028 11.1984 17.0418 12.0168 17.0418 12.8701Z" stroke="white" stroke-width="1.5" stroke-linecap="round" stroke-linejoin="round"/>
</svg>
