<svg width="24" height="24" viewBox="0 0 24 24" fill="none" xmlns="http://www.w3.org/2000/svg">
<path d="M18.9791 19.846C18.1639 18.7667 17.1092 17.8914 15.8981 17.2891C14.6871 16.6868 13.3527 16.3739 12.0001 16.3751C10.6475 16.3739 9.31313 16.6868 8.10205 17.2891C6.89097 17.8914 5.83629 18.7667 5.0211 19.846M18.9791 19.846C20.5698 18.431 21.6917 16.566 22.1981 14.4981C22.7046 12.4302 22.5704 10.2572 21.8135 8.26737C21.0565 6.27749 19.7126 4.56472 17.9599 3.35619C16.2072 2.14766 14.1285 1.50049 11.9995 1.50049C9.87053 1.50049 7.79185 2.14766 6.03913 3.35619C4.28642 4.56472 2.94248 6.27749 2.18555 8.26737C1.42863 10.2572 1.29447 12.4302 1.80089 14.4981C2.3073 16.566 3.43035 18.431 5.0211 19.846M18.9791 19.846C17.0588 21.5589 14.5733 22.5038 12.0001 22.5001C9.42646 22.5041 6.94171 21.5591 5.0211 19.846M15.5001 9.37515C15.5001 10.3034 15.1313 11.1936 14.475 11.85C13.8186 12.5064 12.9284 12.8751 12.0001 12.8751C11.0718 12.8751 10.1816 12.5064 9.52522 11.85C8.86885 11.1936 8.5001 10.3034 8.5001 9.37515C8.5001 8.44689 8.86885 7.55665 9.52522 6.90027C10.1816 6.24389 11.0718 5.87514 12.0001 5.87514C12.9284 5.87514 13.8186 6.24389 14.475 6.90027C15.1313 7.55665 15.5001 8.44689 15.5001 9.37515Z" stroke="white" stroke-width="1.5" stroke-linecap="round" stroke-linejoin="round"/>
</svg>
