<svg width="22" height="22" viewBox="0 0 22 22" fill="none" xmlns="http://www.w3.org/2000/svg">
<path d="M11.2885 4.43503V17.305M8.07132 14.2827L9.01395 14.9895C10.2697 15.9322 12.3062 15.9322 13.563 14.9895C14.8199 14.0468 14.8199 12.5195 13.563 11.5768C12.9357 11.1049 12.1121 10.87 11.2885 10.87C10.511 10.87 9.73353 10.6341 9.14049 10.1633C7.95443 9.22052 7.95443 7.69328 9.14049 6.75056C10.3266 5.80783 12.2504 5.80783 13.4365 6.75056L13.8815 7.10448M20.94 10.87C20.94 12.1376 20.6904 13.3928 20.2054 14.5639C19.7203 15.735 19.0094 16.7991 18.1132 17.6954C17.2169 18.5917 16.153 19.3027 14.982 19.7878C13.811 20.2729 12.556 20.5225 11.2885 20.5225C10.021 20.5225 8.76599 20.2729 7.59501 19.7878C6.42404 19.3027 5.36006 18.5917 4.46383 17.6954C3.5676 16.7991 2.85668 15.735 2.37164 14.5639C1.88661 13.3928 1.63696 12.1376 1.63696 10.87C1.63696 8.31003 2.65382 5.85488 4.46383 4.04468C6.27384 2.23449 8.72875 1.21753 11.2885 1.21753C13.8482 1.21753 16.3031 2.23449 18.1132 4.04468C19.9232 5.85488 20.94 8.31003 20.94 10.87Z" stroke="white" stroke-width="1.5" stroke-linecap="round" stroke-linejoin="round"/>
</svg>
