<svg width="21" height="22" viewBox="0 0 21 22" fill="none" xmlns="http://www.w3.org/2000/svg">
<path d="M20.172 10.6745C20.172 9.97629 19.9177 9.3067 19.4652 8.81301C19.0127 8.31933 18.399 8.04197 17.7591 8.04197H13.7376C13.7376 8.97288 13.3987 9.86567 12.7953 10.5239C12.192 11.1822 11.3737 11.552 10.5204 11.552C9.66718 11.552 8.84888 11.1822 8.24554 10.5239C7.6422 9.86567 7.30325 8.97288 7.30325 8.04197H3.28178C2.64184 8.04197 2.02812 8.31933 1.57561 8.81301C1.12311 9.3067 0.868896 9.97629 0.868896 10.6745M20.172 10.6745V17.6945C20.172 18.3927 19.9177 19.0622 19.4652 19.5559C19.0127 20.0496 18.399 20.327 17.7591 20.327H3.28178C2.64184 20.327 2.02812 20.0496 1.57561 19.5559C1.12311 19.0622 0.868896 18.3927 0.868896 17.6945V10.6745M20.172 10.6745V7.16447M0.868896 10.6745V7.16447M20.172 7.16447C20.172 6.46629 19.9177 5.7967 19.4652 5.30301C19.0127 4.80933 18.399 4.53197 17.7591 4.53197H3.28178C2.64184 4.53197 2.02812 4.80933 1.57561 5.30301C1.12311 5.7967 0.868896 6.46629 0.868896 7.16447M20.172 7.16447V3.65447C20.172 2.95629 19.9177 2.2867 19.4652 1.79301C19.0127 1.29932 18.399 1.02197 17.7591 1.02197H3.28178C2.64184 1.02197 2.02812 1.29932 1.57561 1.79301C1.12311 2.2867 0.868896 2.95629 0.868896 3.65447V7.16447" stroke="white" stroke-width="1.5" stroke-linecap="round" stroke-linejoin="round"/>
</svg>
