<svg width="20" height="20" viewBox="0 0 20 20" fill="none" xmlns="http://www.w3.org/2000/svg">
<path d="M5.125 12.4375V14.875M8.375 10V14.875M11.625 7.5625V14.875M14.875 5.125V14.875M3.5 18.9375H16.5C17.1465 18.9375 17.7665 18.6807 18.2236 18.2236C18.6807 17.7665 18.9375 17.1465 18.9375 16.5V3.5C18.9375 2.85353 18.6807 2.23355 18.2236 1.77643C17.7665 1.31931 17.1465 1.0625 16.5 1.0625H3.5C2.85353 1.0625 2.23355 1.31931 1.77643 1.77643C1.31931 2.23355 1.0625 2.85353 1.0625 3.5V16.5C1.0625 17.1465 1.31931 17.7665 1.77643 18.2236C2.23355 18.6807 2.85353 18.9375 3.5 18.9375Z" stroke="white" stroke-width="1.5" stroke-linecap="round" stroke-linejoin="round"/>
</svg>
